<?xml version="1.0" encoding="UTF-8" standalone="no"?>
<svg
   xmlns:dc="http://purl.org/dc/elements/1.1/"
   xmlns:cc="http://creativecommons.org/ns#"
   xmlns:rdf="http://www.w3.org/1999/02/22-rdf-syntax-ns#"
   xmlns:svg="http://www.w3.org/2000/svg"
   xmlns="http://www.w3.org/2000/svg"
   xmlns:sodipodi="http://sodipodi.sourceforge.net/DTD/sodipodi-0.dtd"
   xmlns:inkscape="http://www.inkscape.org/namespaces/inkscape"
   version="1.1"
   x="0px"
   y="0px"
   viewBox="0 0 32 32"
   enable-background="new 0 0 52 52"
   xml:space="preserve"
   id="svg12"
   sodipodi:docname="close_normal_flower.svg"
   width="32"
   height="32"
   inkscape:version="1.0.2 (e86c870879, 2021-01-15)"
   inkscape:export-filename="/home/zaphod/.config/awesome/themes/nord/titlebar/close_normal_flower.png"
   inkscape:export-xdpi="96"
   inkscape:export-ydpi="96"><metadata
     id="metadata18"><rdf:RDF><cc:Work
         rdf:about=""><dc:format>image/svg+xml</dc:format><dc:type
           rdf:resource="http://purl.org/dc/dcmitype/StillImage" /><dc:title></dc:title></cc:Work></rdf:RDF></metadata><defs
     id="defs16" /><sodipodi:namedview
     pagecolor="#ffffff"
     bordercolor="#666666"
     borderopacity="1"
     objecttolerance="10"
     gridtolerance="10"
     guidetolerance="10"
     inkscape:pageopacity="0"
     inkscape:pageshadow="2"
     inkscape:window-width="1600"
     inkscape:window-height="850"
     id="namedview14"
     showgrid="false"
     fit-margin-top="4"
     fit-margin-left="4"
     fit-margin-right="4"
     fit-margin-bottom="4"
     inkscape:zoom="5.4538462"
     inkscape:cx="15.929888"
     inkscape:cy="50.337788"
     inkscape:window-x="1366"
     inkscape:window-y="30"
     inkscape:window-maximized="1"
     inkscape:current-layer="svg12" /><g
     id="g6"
     style="fill:#bf616a;fill-opacity:1"
     transform="matrix(0.49947971,0,0,0.49947971,3.0135276,3.0135276)"><path
       d="m 39.3,20.5 c 14.3,-5.9 -1.8,-22.1 -7.8,-7.8 5.9,-14.3 -16.9,-14.3 -11,0 -5.9,-14.3 -22.1,1.9 -7.8,7.8 -14.3,-5.9 -14.3,16.9 0,11 -14.3,5.9 1.9,22.1 7.8,7.8 -5.9,14.3 16.9,14.3 11,0 5.9,14.3 22.1,-1.9 7.8,-7.8 14.3,5.9 14.3,-16.9 0,-11 z M 26,36.3 c -5.7,0 -10.3,-4.6 -10.3,-10.3 0,-5.7 4.6,-10.3 10.3,-10.3 5.7,0 10.3,4.6 10.3,10.3 0,5.7 -4.6,10.3 -10.3,10.3 z"
       id="path2"
       style="fill:#bf616a;fill-opacity:1" /><circle
       cx="26"
       cy="26"
       r="7.1999998"
       id="circle4"
       style="fill:#bf616a;fill-opacity:1" /></g><text
     x="-9.1945496"
     y="41.870541"
     fill="#000000"
     font-size="5px"
     font-weight="bold"
     font-family="'Helvetica Neue', Helvetica, Arial-Unicode, Arial, Sans-serif"
     id="text8">Created by ProSymbols</text><text
     x="-9.1945496"
     y="46.870541"
     fill="#000000"
     font-size="5px"
     font-weight="bold"
     font-family="'Helvetica Neue', Helvetica, Arial-Unicode, Arial, Sans-serif"
     id="text10">from the Noun Project</text></svg>
